<svg width="139" height="52" viewBox="0 0 139 52" fill="none" xmlns="http://www.w3.org/2000/svg">
<path d="M33.9638 26.8704L32.1045 24.7778C34.8192 22.3889 36.381 18.963 36.381 15.3519C36.381 8.42592 30.7285 2.7963 23.7745 2.7963V0C32.2718 0 39.1887 6.88889 39.1887 15.3519C39.1887 19.7407 37.2735 23.9444 33.9638 26.8704Z" fill="#85DE76"></path>
<path d="M23.7559 23.7222V20.9259C26.8424 20.9259 29.3712 18.4259 29.3712 15.3333C29.3712 12.2593 26.861 9.74076 23.7559 9.74076V6.94446C28.3857 6.94446 32.1603 10.7037 32.1603 15.3148C32.1603 19.9259 28.4043 23.7222 23.7559 23.7222Z" fill="#85DE76"></path>
<path d="M23.7559 44.6481V41.8518C26.8424 41.8518 29.3712 39.3519 29.3712 36.2593C29.3712 33.1852 26.861 30.6667 23.7559 30.6667V27.8704C28.3857 27.8704 32.1603 31.6296 32.1603 36.2407C32.1788 40.9074 28.4043 44.6481 23.7559 44.6481Z" fill="#85DE76"></path>
<path d="M23.7559 51.6297V48.8334C30.7099 48.8334 36.3624 43.2037 36.3624 36.2778C36.3624 29.3519 30.7099 23.7223 23.7559 23.7223V20.926C32.2532 20.926 39.1701 27.8149 39.1701 36.2778C39.1887 44.7408 32.2718 51.6297 23.7559 51.6297Z" fill="#85DE76"></path>
<path d="M19.5537 37.6852C12.9901 37.6852 7.6351 32.3704 7.6351 25.8148C7.6351 19.2778 12.9715 13.9445 19.5537 13.9445V16.7408C14.5334 16.7408 10.4428 20.8148 10.4428 25.8148C10.4428 30.8148 14.5334 34.8889 19.5537 34.8889V37.6852Z" fill="#85DE76"></path>
<path d="M19.5537 44.6482C9.12261 44.6482 0.64386 36.2037 0.64386 25.8148C0.64386 15.426 9.12261 6.98151 19.5537 6.98151V9.7778C10.6659 9.7778 3.43292 16.9815 3.43292 25.8334C3.43292 34.6852 10.6659 41.8889 19.5537 41.8889V44.6482Z" fill="#85DE76"></path>
<path d="M57.5407 12.7778C56.9829 12.4074 56.3135 12.2223 55.5326 12.2223C54.8075 12.2223 54.1567 12.3889 53.5617 12.7408C52.9667 13.0926 52.4832 13.6111 52.13 14.3148C51.7767 15.0185 51.6093 15.8704 51.6093 16.9074C51.6093 17.963 51.7953 18.8334 52.1485 19.5371C52.5018 20.2408 52.9853 20.7593 53.5803 21.0741C54.1753 21.4074 54.826 21.5556 55.5512 21.5556C56.4251 21.5556 57.1875 21.3148 57.8382 20.8519C58.489 20.3704 58.9353 19.7408 59.1584 18.9074L61.4454 19.8889C61.0364 21.2037 60.274 22.2223 59.177 22.963C58.08 23.7037 56.8342 24.0556 55.4396 24.0556C54.2868 24.0556 53.2084 23.7963 52.2415 23.2778C51.2746 22.7593 50.4751 21.963 49.8801 20.9074C49.2851 19.8519 48.9876 18.5371 48.9876 16.9815C48.9876 15.426 49.3037 14.1111 49.9173 13.0185C50.5309 11.9445 51.349 11.1297 52.3531 10.5926C53.3571 10.0556 54.4356 9.79633 55.5884 9.79633C56.9085 9.79633 58.0614 10.1297 59.0282 10.7778C60.0137 11.426 60.6645 12.3519 61.0178 13.5556L58.6378 14.3148C58.4704 13.6482 58.0985 13.1482 57.5407 12.7778Z" fill="#365072"></path>
<path d="M63.4535 23.1482C62.9701 22.6482 62.7284 21.9075 62.7284 20.9075V9.77783H65.127V20.4445C65.127 20.9075 65.22 21.2223 65.4245 21.4445C65.629 21.6482 65.8893 21.7593 66.2426 21.7593C66.4471 21.7593 66.6517 21.7223 66.912 21.6482V23.5926C66.3728 23.7964 65.8521 23.9075 65.3687 23.9075C64.5692 23.8889 63.937 23.6482 63.4535 23.1482Z" fill="#365072"></path>
<path d="M69.4407 9.70375C70.0915 9.16671 70.6121 8.64819 71.0212 8.14819L72.4157 9.64819C71.8951 10.2408 71.2629 10.7778 70.5378 11.2778C69.8126 11.7778 69.0688 12.2038 68.3251 12.5186L67.4512 11.1482C68.1392 10.7408 68.8085 10.2593 69.4407 9.70375ZM70.7609 23.7223H68.3437V13.7408H70.7609V23.7223Z" fill="#365072"></path>
<path d="M74.7957 13.7408L75.0747 15.0185C75.3907 14.5185 75.7812 14.1297 76.2646 13.8704C76.7481 13.6111 77.3245 13.4815 78.0125 13.4815C78.6261 13.4815 79.1839 13.6111 79.6859 13.8519C80.1879 14.0926 80.597 14.5 80.8945 15.0185C81.192 15.5371 81.3407 16.1852 81.3407 16.9445V23.7223H78.9236V17.6111C78.9236 17.0185 78.7748 16.5741 78.4587 16.2593C78.1612 15.9445 77.7336 15.7778 77.2129 15.7778C76.8411 15.7778 76.4878 15.8704 76.1903 16.0371C75.8928 16.2037 75.6511 16.463 75.4651 16.7778C75.2978 17.1111 75.2048 17.4815 75.2048 17.926V23.7037H72.8062V13.7223H74.7957V13.7408Z" fill="#365072"></path>
<path d="M83.1443 12.0186C82.8468 11.7223 82.6795 11.3334 82.6795 10.8519C82.6795 10.389 82.8282 10.0001 83.1443 9.68525C83.4418 9.38896 83.8323 9.22229 84.3157 9.22229C84.7992 9.22229 85.1896 9.37044 85.5057 9.68525C85.8032 9.98155 85.9706 10.3704 85.9706 10.8519C85.9706 11.3149 85.8218 11.7038 85.5057 12.0186C85.2082 12.3149 84.7992 12.4816 84.3157 12.4816C83.8323 12.463 83.4418 12.3149 83.1443 12.0186ZM83.8323 23.1482C83.3303 22.6482 83.0885 21.9075 83.0885 20.9075V13.7408H85.5057V20.4445C85.5057 20.889 85.5987 21.2038 85.8032 21.426C86.0078 21.6297 86.2867 21.7408 86.6399 21.7408C86.8445 21.7408 87.0676 21.7038 87.2907 21.6482V23.5927C86.7329 23.7964 86.2123 23.9075 85.7289 23.9075C84.9665 23.889 84.3343 23.6482 83.8323 23.1482Z" fill="#365072"></path>
<path d="M94.5609 16.1852C94.2076 15.9074 93.7799 15.7778 93.2779 15.7778C92.7945 15.7778 92.3668 15.8889 92.0135 16.1111C91.6417 16.3334 91.3628 16.6667 91.1582 17.1111C90.9537 17.5556 90.8607 18.0926 90.8607 18.7037C90.8607 19.3334 90.9723 19.8519 91.1768 20.2963C91.3813 20.7223 91.6788 21.0556 92.0321 21.2778C92.404 21.5 92.8131 21.5926 93.2965 21.5926C93.8171 21.5926 94.2634 21.463 94.6167 21.2223C94.9699 20.963 95.2488 20.5926 95.472 20.0926L97.4429 20.9815C97.0896 21.926 96.5318 22.6482 95.7509 23.1667C94.9699 23.6667 94.096 23.926 93.1106 23.926C92.2553 23.926 91.4743 23.7408 90.7492 23.3519C90.024 22.963 89.4476 22.3889 89.0385 21.6297C88.6109 20.8704 88.4063 19.926 88.4063 18.7963C88.4063 17.6482 88.6295 16.6852 89.0757 15.8889C89.522 15.0926 90.117 14.5 90.8607 14.1111C91.6045 13.7223 92.4226 13.5186 93.3151 13.5186C94.2634 13.5186 95.1187 13.7593 95.8624 14.2593C96.6062 14.7593 97.1268 15.5556 97.4243 16.6482L95.3604 17.4445C95.1745 16.8704 94.9142 16.463 94.5609 16.1852Z" fill="#365072"></path>
<path d="M58.3589 28.7038C58.9911 29.0371 59.4373 29.4815 59.7534 30.0001C60.0509 30.5371 60.1996 31.1112 60.1996 31.7038C60.1996 32.2964 60.0509 32.8519 59.7348 33.3519C59.4187 33.8519 58.9911 34.2223 58.4704 34.463C59.27 34.7038 59.865 35.1297 60.2926 35.7408C60.7203 36.3519 60.9248 37.0001 60.9248 37.7408C60.9248 38.426 60.7389 39.0927 60.3856 39.7038C60.0137 40.3334 59.4745 40.8334 58.7679 41.2408C58.0428 41.6482 57.2061 41.8519 56.2206 41.8519H50.5123V28.1852H56.0532C56.9643 28.2038 57.7267 28.3704 58.3589 28.7038ZM53.041 33.7038H55.8487C56.2206 33.7038 56.5181 33.6297 56.7784 33.463C57.0387 33.3149 57.2432 33.1112 57.3734 32.8519C57.5036 32.6112 57.5779 32.3519 57.5779 32.0741C57.5779 31.6297 57.4292 31.2593 57.1317 30.9445C56.8342 30.6297 56.4065 30.4815 55.8673 30.4815H53.0596V33.7038H53.041ZM53.041 39.5556H56.2578C56.6854 39.5556 57.0573 39.463 57.3548 39.2778C57.6523 39.0927 57.8754 38.8704 58.0428 38.5927C58.1915 38.3149 58.2845 38.0186 58.2845 37.6852C58.2845 37.3519 58.2101 37.0556 58.0428 36.7778C57.894 36.5001 57.6523 36.2778 57.3548 36.0927C57.0573 35.926 56.6668 35.8334 56.2392 35.8334H53.0596V39.5556H53.041Z" fill="#365072"></path>
<path d="M71.8021 41.8704H69.7754L69.4407 40.2964C69.1618 40.889 68.7714 41.3334 68.2507 41.6112C67.7301 41.889 67.1165 42.0371 66.4099 42.0371C65.4245 42.0371 64.6249 41.7964 63.9928 41.3149C63.3606 40.8334 62.8771 40.2038 62.5796 39.4075C62.2821 38.6112 62.1148 37.7593 62.1148 36.8149C62.1148 35.8334 62.2821 34.9445 62.6354 34.1482C62.9887 33.3519 63.4907 32.7408 64.1415 32.2964C64.7923 31.8519 65.5732 31.6297 66.4657 31.6297C67.0979 31.6297 67.6743 31.7593 68.1578 32.0186C68.6598 32.2778 69.0503 32.6667 69.3478 33.1852L69.7754 31.889H71.8021V41.8704V41.8704ZM65.6476 34.3149C65.2943 34.5556 65.034 34.9075 64.8481 35.3519C64.6621 35.7964 64.5692 36.3149 64.5692 36.9075C64.5692 37.463 64.6621 37.963 64.8295 38.389C64.9968 38.8149 65.2757 39.1667 65.629 39.4075C65.9823 39.6482 66.4099 39.7593 66.9306 39.7593C67.4698 39.7593 67.916 39.6297 68.2879 39.389C68.6598 39.1482 68.9201 38.7964 69.106 38.3519C69.292 37.9075 69.3849 37.4075 69.3849 36.8334C69.3849 36.2964 69.292 35.7964 69.106 35.3519C68.9201 34.9075 68.6412 34.5556 68.2879 34.3149C67.916 34.0556 67.4884 33.9445 66.9678 33.9445C66.4285 33.9445 66.0009 34.0741 65.6476 34.3149Z" fill="#365072"></path>
<path d="M76.5435 31.8889L76.8224 33.1667C77.0456 32.7038 77.3431 32.3704 77.7335 32.1297C78.124 31.8889 78.5888 31.7778 79.1095 31.7778C79.3884 31.7778 79.7045 31.8149 80.0206 31.8889V34.2223C79.6487 34.0926 79.2954 34.0186 78.9607 34.0186C78.3657 34.0186 77.8823 34.2223 77.5104 34.6112C77.1199 35.0001 76.934 35.5741 76.934 36.3149V41.8704H74.5354V31.8889H76.5435V31.8889Z" fill="#365072"></path>
<path d="M87.4023 34.3334C87.049 34.0556 86.6214 33.9259 86.1193 33.9259C85.6359 33.9259 85.2082 34.0371 84.8549 34.2593C84.4831 34.4815 84.2042 34.8148 83.9996 35.2593C83.7951 35.7037 83.7021 36.2408 83.7021 36.8519C83.7021 37.4815 83.8137 38 84.0182 38.4445C84.2228 38.8704 84.5203 39.2037 84.8735 39.426C85.2454 39.6482 85.6545 39.7408 86.1379 39.7408C86.6585 39.7408 87.1048 39.6111 87.4581 39.3704C87.8114 39.1111 88.0903 38.7408 88.3134 38.2408L90.2843 39.1297C89.931 40.0741 89.3732 40.7963 88.5923 41.3148C87.8114 41.8148 86.9375 42.0741 85.952 42.0741C85.0967 42.0741 84.3157 41.8889 83.5906 41.5C82.8654 41.1111 82.289 40.5371 81.8799 39.7778C81.4523 39.0185 81.2478 38.0741 81.2478 36.9445C81.2478 35.7963 81.4709 34.8334 81.9171 34.0371C82.3634 33.2408 82.9584 32.6482 83.7021 32.2593C84.4459 31.8704 85.264 31.6667 86.1565 31.6667C87.1048 31.6667 87.9601 31.9074 88.7039 32.4074C89.4476 32.9074 89.9682 33.7037 90.2657 34.7963L88.2018 35.5926C87.9973 35.0185 87.737 34.6111 87.4023 34.3334Z" fill="#365072"></path>
<path d="M92.9246 37.8334V35.8704H98.3168C98.3168 35.1852 98.1495 34.6667 97.7962 34.2964C97.4429 33.926 96.9781 33.7593 96.3831 33.7593C95.881 33.7593 95.4534 33.8704 95.1001 34.0927C94.7468 34.3149 94.4679 34.6482 94.2634 35.1112C94.0588 35.5556 93.9659 36.1112 93.9659 36.7778C93.9659 37.8334 94.2076 38.5927 94.6724 39.0927C95.1559 39.5741 95.7695 39.8149 96.5504 39.8149C97.071 39.8149 97.5173 39.7038 97.8892 39.5001C98.261 39.2964 98.5771 38.9815 98.856 38.5556L100.604 39.7408C100.12 40.5001 99.5068 41.0741 98.7631 41.463C98.0193 41.8519 97.2198 42.0556 96.3645 42.0556C95.5092 42.0556 94.7096 41.8519 94.0031 41.463C93.2779 41.0741 92.7201 40.5001 92.2924 39.7223C91.8648 38.9445 91.6417 38.0001 91.6417 36.889C91.6417 35.7778 91.8648 34.8334 92.2924 34.0371C92.7201 33.2408 93.2965 32.6482 94.0217 32.2408C94.7468 31.8334 95.5278 31.6297 96.4017 31.6297C97.1826 31.6297 97.8892 31.7964 98.5399 32.1297C99.1907 32.463 99.6928 32.963 100.083 33.6482C100.474 34.3334 100.66 35.2038 100.66 36.2408V37.8334H92.9246Z" fill="#365072"></path>
<path d="M102.761 41.2963C102.277 40.7963 102.036 40.0556 102.036 39.0556V27.926H104.434V38.5926C104.434 39.0556 104.527 39.3704 104.732 39.5926C104.936 39.7963 105.197 39.9074 105.55 39.9074C105.754 39.9074 105.959 39.8704 106.219 39.7963V41.7408C105.68 41.9445 105.159 42.0556 104.676 42.0556C103.876 42.0371 103.244 41.7963 102.761 41.2963Z" fill="#365072"></path>
<path d="M114.977 32.3334C115.721 32.8149 116.297 33.4445 116.687 34.2408C117.078 35.0371 117.282 35.9075 117.282 36.8334C117.282 37.7593 117.078 38.6297 116.687 39.426C116.297 40.2223 115.721 40.8519 114.977 41.3149C114.233 41.7964 113.359 42.0186 112.337 42.0186C111.314 42.0186 110.44 41.7778 109.696 41.3149C108.952 40.8334 108.376 40.2038 107.986 39.426C107.595 38.6297 107.391 37.7778 107.391 36.8334C107.391 35.9075 107.595 35.0371 107.986 34.2408C108.376 33.4445 108.952 32.8149 109.696 32.3334C110.44 31.8519 111.332 31.6297 112.337 31.6297C113.359 31.6297 114.233 31.8704 114.977 32.3334ZM110.979 34.3149C110.607 34.5741 110.328 34.926 110.142 35.3704C109.957 35.8149 109.864 36.2964 109.864 36.8519C109.864 37.4075 109.957 37.889 110.142 38.3149C110.328 38.7408 110.607 39.0927 110.979 39.3519C111.351 39.6112 111.816 39.7408 112.355 39.7408C112.876 39.7408 113.322 39.6112 113.712 39.3519C114.084 39.0927 114.382 38.7408 114.568 38.3149C114.754 37.889 114.847 37.3889 114.847 36.8519C114.847 36.3149 114.754 35.8149 114.568 35.3704C114.382 34.926 114.103 34.5741 113.712 34.3149C113.341 34.0556 112.894 33.926 112.355 33.926C111.816 33.926 111.351 34.0556 110.979 34.3149Z" fill="#365072"></path>
<path d="M120.555 31.889L120.834 33.1667C121.15 32.6667 121.54 32.2778 122.024 32.0186C122.507 31.7593 123.084 31.6297 123.772 31.6297C124.385 31.6297 124.943 31.7593 125.445 32.0001C125.947 32.2408 126.356 32.6482 126.654 33.1667C126.951 33.6853 127.1 34.3334 127.1 35.0927V41.8704H124.683V35.7593C124.683 35.1667 124.534 34.7223 124.218 34.4075C123.92 34.0927 123.493 33.926 122.972 33.926C122.6 33.926 122.247 34.0186 121.949 34.1853C121.652 34.3519 121.41 34.6112 121.224 34.926C121.057 35.2593 120.964 35.6297 120.964 36.0741V41.8519H118.565V31.8704H120.555V31.889Z" fill="#365072"></path>
<path d="M138.089 41.8704H136.062L135.727 40.2964C135.449 40.889 135.058 41.3334 134.537 41.6112C134.017 41.889 133.403 42.0371 132.697 42.0371C131.711 42.0371 130.912 41.7964 130.279 41.3149C129.647 40.8334 129.164 40.2038 128.866 39.4075C128.569 38.6112 128.402 37.7593 128.402 36.8149C128.402 35.8334 128.569 34.9445 128.922 34.1482C129.275 33.3519 129.777 32.7408 130.428 32.2964C131.079 31.8519 131.86 31.6297 132.752 31.6297C133.385 31.6297 133.961 31.7593 134.444 32.0186C134.947 32.2778 135.337 32.6667 135.634 33.1852L136.062 31.889H138.089V41.8704ZM131.916 34.3149C131.562 34.5556 131.302 34.9075 131.116 35.3519C130.93 35.7964 130.837 36.3149 130.837 36.9075C130.837 37.463 130.93 37.963 131.098 38.389C131.265 38.8149 131.544 39.1667 131.897 39.4075C132.25 39.6482 132.678 39.7593 133.199 39.7593C133.738 39.7593 134.184 39.6297 134.556 39.389C134.928 39.1482 135.188 38.7964 135.374 38.3519C135.56 37.9075 135.653 37.4075 135.653 36.8334C135.653 36.2964 135.56 35.7964 135.374 35.3519C135.188 34.9075 134.909 34.5556 134.556 34.3149C134.184 34.0556 133.757 33.9445 133.236 33.9445C132.715 33.9445 132.269 34.0741 131.916 34.3149Z" fill="#365072"></path>
</svg>
