<svg width="130" height="35" viewBox="0 0 130 35" fill="none" xmlns="http://www.w3.org/2000/svg">
<path d="M0.985876 3.12966C1.13463 3.09262 1.26478 2.92596 1.26478 2.75929C1.26478 2.59262 1.13463 2.50004 0.985876 2.53707C0.837126 2.57411 0.70697 2.74078 0.70697 2.90744C0.70697 3.07411 0.818533 3.18522 0.985876 3.12966ZM10.4315 34.7963L10.8034 34.8149V33.3519L10.4315 33.3334V34.7963ZM2.78948 2.62966L2.49199 2.72226C2.41761 2.74078 2.36183 2.75929 2.30605 2.79633L2.26885 2.77781C2.30604 2.72226 2.32464 2.68522 2.32464 2.59263V1.59263L1.98994 1.68522V3.11115L2.80807 2.8704V2.62966H2.78948ZM4.03526 32.3889C3.86791 32.3334 3.73776 32.426 3.73776 32.5926C3.73776 32.7593 3.86791 32.9445 4.03526 33C4.2026 33.0556 4.33275 32.963 4.33275 32.7963C4.33275 32.6297 4.18401 32.4445 4.03526 32.3889ZM7.88418 33.426C7.84699 33.6112 7.8098 33.7963 7.8098 34L7.75401 33.9815C7.75401 33.6667 7.71683 33.463 7.69824 33.3889L7.58666 32.8889V32.8704L7.12181 32.7593V34.2223L7.40072 34.2778V33.5C7.40072 33.3704 7.38214 33.2408 7.36354 33.0926L7.41933 33.1111C7.41933 33.2223 7.43792 33.3334 7.45651 33.4445L7.66104 34.3334V34.3519L7.86556 34.3889L8.03291 33.7408C8.0701 33.5926 8.10729 33.4445 8.12588 33.2593L8.18167 33.2778C8.14448 33.5 8.14447 33.6482 8.14447 33.7037V34.4445L8.44199 34.5186V33.0741L7.99573 32.9815L7.88418 33.426ZM6.21074 32.5C5.85746 32.3889 5.67151 32.5926 5.67151 33.0926C5.67151 33.5926 5.85746 33.9074 6.21074 34C6.26652 34.0186 6.32228 34.0185 6.37806 34.0185C6.61978 34.0185 6.74994 33.7963 6.74994 33.3889C6.74994 32.9074 6.56402 32.5926 6.21074 32.5ZM6.35947 33.6297C6.34088 33.7223 6.30369 33.7408 6.26651 33.7408C6.24791 33.7408 6.24792 33.7408 6.22933 33.7408C6.09917 33.7037 6.06198 33.5741 6.06198 33.2037C6.06198 32.8889 6.09916 32.7778 6.17354 32.7778C6.19213 32.7778 6.19214 32.7778 6.21074 32.7778C6.34089 32.8149 6.37806 32.9445 6.37806 33.2778C6.37806 33.463 6.35947 33.5556 6.35947 33.6297ZM124.151 11.7963C124.151 10.7408 123.37 10.1297 122.05 10.1297H120.339V10.426L120.711 10.4445L120.767 10.5V13.0741L120.711 13.1297L120.339 13.1667V13.463H122.05C123.389 13.4445 124.151 12.8519 124.151 11.7963ZM121.659 13.1111V10.4445H121.92C122.775 10.4445 123.184 10.8704 123.184 11.7778C123.184 12.6852 122.775 13.1111 121.92 13.1111H121.659ZM9.66917 33.6482C9.66917 33.8889 9.70634 34.1297 9.72494 34.3519H9.66917C9.65058 34.1482 9.59479 33.9074 9.52041 33.7223L9.2973 33.2223L8.88822 33.1667V34.6297L9.20433 34.6667V34.2223C9.20433 34.0186 9.18572 33.7778 9.14854 33.5371H9.20433C9.20433 33.7037 9.2601 33.8889 9.33447 34.0556L9.63197 34.7223L9.98526 34.7778V33.3148L9.66917 33.2778V33.6482ZM128.762 12.5186H128.279L128.167 13.0556L128.111 13.1111H126.903V11.8889H127.535L127.591 11.926L127.647 12.3148H128.093V11.1297H127.647L127.591 11.5186L127.535 11.5556H126.903V10.463H127.925L127.963 10.5L128.056 10.9445H128.558V10.1297H125.601V10.426L125.973 10.4445L126.029 10.5V13.0741L125.954 13.1297L125.601 13.1667V13.463H128.744V12.5186H128.762ZM11.4913 33.3889L11.1195 34.8334V34.8519H11.4728L11.51 34.7037C11.5286 34.6482 11.51 34.5926 11.51 34.5556C11.5657 34.5741 11.6215 34.5741 11.7145 34.5741H11.7331C11.8074 34.5741 11.8632 34.5741 11.9004 34.5556C11.9004 34.5926 11.8818 34.6297 11.9004 34.6852L11.9376 34.8519H12.2909L11.9748 33.3889H11.4913ZM11.8446 34.3519C11.7888 34.3334 11.7517 34.3334 11.7145 34.3334C11.6587 34.3334 11.6215 34.3334 11.5657 34.3519V34.3334C11.6215 34.1852 11.6773 33.963 11.7145 33.5926H11.7517C11.7517 33.926 11.7888 34.2037 11.8446 34.3519ZM19.3751 32.3889C19.2078 32.4445 19.0776 32.6297 19.0776 32.7963C19.0776 32.963 19.2078 33.0556 19.3751 33C19.5424 32.9445 19.6726 32.7408 19.6726 32.5741C19.6726 32.4074 19.5424 32.3148 19.3751 32.3889ZM7.92135 30.2408V23.2223H7.04746V30.0186C7.32636 30.0926 7.62385 30.1667 7.92135 30.2408ZM10.0968 30.6297V23.2223H9.22292V30.5186C9.50182 30.5556 9.79931 30.5926 10.0968 30.6297ZM13.7226 34.4815C13.7412 34.426 13.7598 34.3889 13.7598 34.2963V33.2593L13.3879 33.2963V34.7593L14.2061 34.6667H14.2246V34.3889L13.9085 34.426C13.8528 34.4445 13.797 34.463 13.7226 34.4815ZM14.9126 33.6297C14.8754 33.7963 14.8382 34.0186 14.8196 34.2778H14.801C14.801 34.0556 14.7639 33.8334 14.7081 33.6297L14.5779 33.1482L14.2246 33.2037L14.6337 34.5926V34.6111L14.9684 34.5556L15.3774 33.0186L15.0242 33.0741L14.9126 33.6297ZM16.1212 32.7963C15.7493 32.8889 15.5448 33.2037 15.5448 33.6852C15.5448 33.8889 15.582 34.0556 15.6563 34.1667C15.7307 34.2778 15.8423 34.3334 15.9725 34.3334C16.0096 34.3334 16.0654 34.3334 16.1026 34.3149C16.2514 34.2778 16.3629 34.2223 16.4931 34.0926V33.7408L16.3629 33.7778C16.3071 33.9074 16.2328 33.9815 16.1398 34C15.991 34.0371 15.8981 33.8889 15.8981 33.6112C15.8981 33.3149 15.991 33.1297 16.1398 33.0926C16.2142 33.0741 16.2886 33.1111 16.3443 33.2223V33.2408L16.4745 33.2037V32.8519H16.4559C16.3815 32.7778 16.2513 32.7778 16.1212 32.7963ZM17.1996 33.7593C17.2182 33.7037 17.2368 33.6482 17.2368 33.6112V33.5556C17.2368 33.5 17.2182 33.463 17.1996 33.4074L17.2182 33.3889C17.274 33.3889 17.3298 33.3704 17.4042 33.3519L17.7017 33.2593V32.9815L17.3856 33.0741C17.3112 33.0926 17.2554 33.1112 17.1996 33.1482C17.2368 33.0926 17.2368 33.0371 17.2368 33V32.9445C17.2368 32.8889 17.2182 32.8519 17.1996 32.8148L17.2182 32.7963H17.2368C17.2926 32.7963 17.3484 32.7778 17.4042 32.7593L17.7203 32.6667V32.3889L16.8835 32.6297V34.0926L17.7389 33.8334V33.5556L17.3856 33.6667C17.3112 33.7037 17.2554 33.7223 17.1996 33.7593ZM6.26651 1.74077C6.26651 1.62966 6.26652 1.55559 6.21074 1.50003L6.24792 1.46299C6.3037 1.48151 6.34089 1.48151 6.39668 1.46299L6.67558 2.00004L7.06605 1.92596L6.69417 1.33337V1.29633C6.84292 1.24077 6.93588 1.12966 6.93588 0.925959C6.93588 0.777811 6.8615 0.666703 6.74994 0.611147C6.63838 0.57411 6.52682 0.592629 6.35947 0.611147L5.91322 0.68522V2.11114L6.24792 2.05559V1.74077H6.26651ZM6.19213 1.27781C6.22931 1.22225 6.24792 1.1667 6.24792 1.09262V1.03707C6.24792 0.981515 6.22933 0.925958 6.21074 0.907439L6.24792 0.870405C6.34089 0.888924 6.43386 0.851887 6.50823 0.870405C6.6012 0.888924 6.63838 0.944478 6.63838 1.03707C6.63838 1.12966 6.58261 1.22226 6.48964 1.2593C6.41527 1.29633 6.3223 1.29633 6.22933 1.33337L6.19213 1.27781ZM19.5239 2.48151C19.654 2.38892 19.7098 2.20374 19.7098 1.94448C19.7098 1.68522 19.6354 1.463 19.4867 1.29633C19.3751 1.18522 19.2263 1.11115 19.0218 1.07411L18.6499 0.981518V2.40744L19.0218 2.50003C19.2449 2.55559 19.3937 2.57411 19.5239 2.48151ZM18.9475 2.22226C19.0032 2.1667 19.0032 2.11114 19.0032 2.03707V1.50003C19.0032 1.42596 19.0032 1.3704 18.9475 1.29633L18.9846 1.27781C19.059 1.31485 19.1892 1.33337 19.2635 1.40744C19.3565 1.50003 19.3565 1.64818 19.3565 1.85188V1.94448C19.3565 2.20374 19.2821 2.22226 19.245 2.24077C19.1706 2.27781 19.059 2.22226 18.9846 2.24077L18.9475 2.22226ZM13.4809 1.38892L13.109 1.3704C13.0346 1.3704 12.9789 1.3704 12.9045 1.38892L12.8673 1.35189C12.9045 1.31485 12.9231 1.25929 12.9231 1.22226V1.1667C12.9231 1.11115 12.9045 1.05559 12.8673 1.01855L12.9045 0.981518C12.9603 1.00004 13.0346 1.01855 13.109 1.01855L13.4251 1.03707V0.796332L13.109 0.777813C13.0346 0.777813 12.9789 0.777814 12.9045 0.796332L12.8673 0.759293C12.9045 0.722256 12.9231 0.666698 12.9231 0.629661V0.574108C12.9231 0.518552 12.9045 0.481518 12.8673 0.425962L12.9045 0.388923C12.9789 0.407441 13.0346 0.425962 13.109 0.425962L13.4437 0.444476V0.222257L12.5698 0.185218V1.61115L13.4623 1.6667V1.38892H13.4809ZM9.81791 1.40744C9.68775 1.40744 9.5576 1.35189 9.50182 1.22226H9.39026L9.37168 1.57411C9.52043 1.62966 9.66916 1.64818 9.81791 1.64818C10.1526 1.62966 10.3757 1.40744 10.3757 1.1667C10.3757 0.981518 10.2456 0.870402 10.1526 0.814846C9.92948 0.722254 9.74355 0.666698 9.74355 0.537069C9.74355 0.462995 9.81793 0.388923 9.92949 0.388923C10.0225 0.388923 10.134 0.444477 10.1898 0.555588H10.3014V0.222257C10.1712 0.18522 10.041 0.166698 9.91088 0.166698C9.57619 0.185217 9.39026 0.370407 9.39026 0.611147C9.39026 0.796332 9.50182 0.925958 9.70635 1.00003C9.8551 1.05559 10.0225 1.09263 10.0225 1.22226C10.0225 1.31485 9.94806 1.38892 9.81791 1.40744ZM20.7696 2.70374L20.4163 2.61115C20.342 2.59263 20.2862 2.57411 20.2118 2.57411L20.1746 2.53707C20.2118 2.50004 20.2304 2.463 20.2304 2.40744V2.35189C20.2304 2.29633 20.2118 2.24078 20.1746 2.18522L20.2118 2.1667C20.2676 2.20374 20.342 2.22226 20.4163 2.24077L20.7325 2.31485V2.07411L20.4163 2.00004C20.342 1.98152 20.2862 1.963 20.2118 1.98152L20.1746 1.94448C20.2118 1.90744 20.2304 1.87041 20.2304 1.81485V1.75929C20.2304 1.70374 20.2118 1.6667 20.1746 1.61115L20.2118 1.59263C20.2676 1.62966 20.342 1.64818 20.4163 1.6667L20.751 1.75929V1.51855L19.9143 1.29633V2.72226L20.7882 2.94448V2.70374H20.7696ZM11.6773 1.27781C11.6773 1.18522 11.6773 1.11115 11.6215 1.05559L11.6587 1.01855C11.7331 1.03707 11.7888 1.05559 11.8632 1.05559C12.1793 1.05559 12.3839 0.888923 12.3839 0.574108C12.3839 0.407441 12.3095 0.259292 12.1793 0.185218C12.0864 0.129662 11.9562 0.129664 11.7889 0.111145H11.3426V1.53707H11.6959V1.27781H11.6773ZM11.6215 0.370403L11.6587 0.33337C11.6959 0.351888 11.7517 0.351885 11.8075 0.370403C11.919 0.388922 11.9934 0.462998 11.9934 0.592628C11.9934 0.703739 11.9376 0.796328 11.8632 0.814846C11.7888 0.833365 11.7145 0.833367 11.6401 0.851886L11.6215 0.814846C11.6587 0.759291 11.6587 0.70374 11.6587 0.611147V0.537069C11.6773 0.462995 11.6587 0.40744 11.6215 0.370403ZM15.3589 1.3704C15.3589 1.31485 15.3403 1.25929 15.3031 1.20374L15.3403 1.18522C15.4146 1.22225 15.4704 1.22226 15.5448 1.24078L15.8609 1.27781V1.03707L15.5448 1.00003C15.4704 1.00003 15.4146 0.981513 15.3403 1.00003L15.3031 0.962998C15.3403 0.925961 15.3589 0.870403 15.3589 0.833366V0.777813C15.3589 0.722257 15.3403 0.685217 15.3031 0.629661L15.3403 0.592628C15.396 0.629665 15.4704 0.629662 15.5448 0.648181L15.8795 0.68522V0.444476L15.0242 0.33337V1.75929L15.3589 1.81485V1.3704ZM14.0573 1.33337C14.0573 1.22226 14.0573 1.14818 14.0015 1.07411L14.0387 1.03707C14.0945 1.05559 14.1317 1.07411 14.1874 1.07411L14.4663 1.68522L14.8754 1.72226L14.5035 1.01855V0.981518C14.6523 0.962999 14.7453 0.870405 14.7453 0.68522C14.7453 0.537072 14.6709 0.407442 14.5593 0.31485C14.4478 0.240776 14.3362 0.222257 14.1688 0.222257L13.7226 0.185218V1.61115L14.0759 1.64818V1.33337H14.0573ZM13.9643 0.870405C14.0015 0.833368 14.0201 0.777814 14.0201 0.70374V0.629661C14.0201 0.574106 14.0015 0.500034 13.9829 0.481515L14.0201 0.462996C14.1131 0.500033 14.206 0.500036 14.2804 0.518555C14.3734 0.555592 14.4106 0.629661 14.4106 0.722254C14.4106 0.814846 14.3548 0.888921 14.2618 0.907439C14.1874 0.925958 14.0945 0.907439 14.0015 0.907439L13.9643 0.870405ZM17.5343 1.74077C17.5343 1.51855 17.5157 1.27781 17.4785 1.01855L17.5715 1.03707C17.5715 1.20374 17.6273 1.40744 17.7017 1.57411L18.0178 2.25929L18.3524 2.33337V0.907439L18.0735 0.851886V1.24078C18.0735 1.463 18.0921 1.70374 18.1293 1.963L18.0364 1.94448C18.0364 1.70374 17.962 1.46299 17.8876 1.27781L17.6459 0.759293L17.2554 0.68522V2.11114L17.5343 2.1667V1.74077V1.74077ZM5.76448 29.5741V23.2037H4.89056V29.2223C4.89056 29.2223 4.89056 29.2223 4.89056 29.2408C5.16947 29.3519 5.46698 29.463 5.76448 29.5741ZM21.2159 1.8704L21.2531 1.90744C21.2159 1.94448 21.1973 1.98151 21.1973 2.03707V3.05559L21.532 3.14818V2.12966C21.532 2.07411 21.5134 2.03707 21.4762 1.963L21.5134 1.94448C21.5692 1.98151 21.6435 2.00003 21.7179 2.01855L21.8853 2.07411V1.81485L20.8812 1.51855V1.77781L21.0485 1.81485C21.0857 1.85189 21.1601 1.8704 21.2159 1.8704ZM16.6976 2.01855L17.1253 0.648181L16.8092 0.592628L16.6976 1.07411C16.6604 1.24078 16.6046 1.46299 16.586 1.74077L16.5303 1.72226C16.5303 1.50004 16.4931 1.25929 16.4373 1.01855L16.3071 0.500035L15.9725 0.444476L16.4001 1.94448L16.6976 2.01855ZM97.1156 7.40744L97.2457 7.29633H98.7704V12.7963L98.6403 12.9074L97.8779 12.963V13.463H100.853V12.963L100.072 12.9074L99.9418 12.7963V7.29633H101.467L101.615 7.40744L101.801 8.44448H102.508V6.74077H96.2045V8.44448H96.911L97.1156 7.40744ZM5.70869 1.92596L5.35541 2.00004C5.28103 2.01855 5.22526 2.03707 5.15088 2.07411L5.1137 2.05559C5.15089 2.00003 5.16947 1.963 5.16947 1.90744V1.85188C5.16947 1.79633 5.15089 1.75929 5.1137 1.70374L5.15088 1.6667C5.20666 1.6667 5.28103 1.6667 5.35541 1.64818L5.67151 1.57411V1.33337L5.35541 1.40744C5.28103 1.42596 5.22526 1.44448 5.15088 1.48151L5.1137 1.46299C5.15089 1.40744 5.16947 1.3704 5.16947 1.31485V1.2593C5.16947 1.20374 5.15089 1.1667 5.1137 1.12966L5.15088 1.09262C5.20666 1.09262 5.28103 1.09263 5.35541 1.07411L5.6901 1.00003V0.777813L4.8348 0.962998V2.38892L5.70869 2.20374V1.92596ZM4.38854 2.40744C4.5187 2.31485 4.59307 2.1667 4.59307 2.00004C4.59307 1.77781 4.48152 1.70374 4.25839 1.74077V1.70374C4.44433 1.62966 4.55589 1.48152 4.55589 1.31485C4.55589 1.18522 4.48151 1.09263 4.38854 1.07411C4.29557 1.05559 4.18401 1.07411 4.03526 1.11114L3.60761 1.22226V2.64818L3.97949 2.55559C4.18402 2.50004 4.29557 2.463 4.38854 2.40744ZM3.90511 1.38892L3.94229 1.35189C3.96088 1.35189 3.97948 1.35189 4.01667 1.35189C4.07245 1.35189 4.10963 1.33337 4.14681 1.33337C4.184 1.33337 4.25839 1.35188 4.25839 1.46299C4.25839 1.57411 4.2026 1.64818 4.12822 1.6667C4.09104 1.68522 4.01666 1.70374 3.94229 1.74077L3.90511 1.72226C3.9423 1.6667 3.96088 1.61114 3.96088 1.57411V1.51855C3.94228 1.48152 3.9237 1.44448 3.90511 1.38892ZM3.90511 2.33337C3.9423 2.27781 3.96088 2.22226 3.96088 2.14818V2.09263C3.96088 2.05559 3.9423 2.00003 3.90511 1.963L3.94229 1.92596C4.01666 1.92596 4.07244 1.92596 4.12822 1.90744C4.16541 1.90744 4.27698 1.90744 4.27698 2.05559C4.27698 2.24077 4.12822 2.27781 3.94229 2.35189L3.90511 2.33337ZM42.7288 7.40744V12.7408L42.5801 12.8704L41.8735 12.9445V13.4445H44.2907V12.9445L43.5842 12.8704L43.4354 12.7408V8.11115L47.3773 13.4445H48.6788L48.1582 12.7408V7.463L48.307 7.31485L49.0135 7.24077V6.74077H46.6149V7.24077L47.3215 7.31485L47.4702 7.463V11.7778L43.9932 7.03707V6.74077H41.8364V7.24077L42.5801 7.29633L42.7288 7.40744ZM8.36761 1.75929L8.40479 1.61115C8.42338 1.55559 8.40479 1.48151 8.40479 1.46299L8.42338 1.44448C8.49775 1.463 8.53496 1.463 8.62793 1.44448C8.72089 1.44448 8.77667 1.42596 8.83245 1.40744L8.85104 1.42596C8.85104 1.463 8.83245 1.51855 8.85104 1.55559L8.88822 1.70374L9.22292 1.6667L8.88822 0.277811L8.42338 0.33337L8.03291 1.81485L8.36761 1.75929ZM8.60931 0.462996H8.68369C8.70229 0.851885 8.75808 1.11115 8.81386 1.22226L8.79525 1.2593C8.73947 1.2593 8.7023 1.2593 8.64651 1.2593C8.59073 1.2593 8.53495 1.27781 8.47917 1.29633L8.46058 1.27781C8.53495 1.07411 8.57213 0.814848 8.60931 0.462996ZM71.4562 11.6852H70.7682L70.5637 12.8149L70.3778 12.926H67.6631V10.2778H69.2993L69.4481 10.3704L69.5596 11.1297H70.2104V8.8704H69.5596L69.4481 9.62966L69.2993 9.74078H67.6631V7.33337H70.0059L70.1732 7.44448L70.3592 8.31485H71.1029V6.77781H65.7107V7.27781L66.3801 7.33337L66.5103 7.44448V12.8334L66.3801 12.9445L65.7107 13V13.5H71.4934V11.6852H71.4562ZM7.45651 0.666701L7.49369 0.68522C7.4565 0.740776 7.43792 0.777811 7.43792 0.833366V1.85188L7.77259 1.79633V0.777813C7.77259 0.722257 7.75401 0.685218 7.71683 0.648181L7.75401 0.611147C7.82838 0.629666 7.88416 0.611147 7.95853 0.611147L8.12588 0.592628V0.33337L7.08464 0.481515V0.740774L7.25198 0.722254C7.32636 0.722254 7.38214 0.703738 7.45651 0.666701ZM3.3473 1.29633L3.0126 1.38892V2.81485L3.3473 2.72226V1.29633ZM111.898 8.463H112.604L112.79 7.42596L112.92 7.31485H114.445V12.8149L114.315 12.926L113.552 12.9815V13.4815H116.527V12.9815L115.747 12.926L115.616 12.8149V7.31485H117.141L117.29 7.42596L117.476 8.463H118.182V6.75929H111.879V8.463H111.898ZM36.5371 5.6667L37.411 5.77781L37.6899 6.03707V11.2408C37.6899 13.2778 36.8904 14.1667 35.0496 14.1667C33.246 14.1667 32.4465 13.2963 32.4465 11.2408V5.92596L32.6882 5.72225L33.5993 5.64818V5.05559H30.2153V5.68522L30.8288 5.74077L31.0706 5.94448V11.3889C31.0706 12.4815 31.1821 13.1297 31.4796 13.6482C32.0003 14.5556 33.2089 15.0926 34.7521 15.0926C36.0723 15.0926 37.1879 14.7037 37.8015 14C38.2663 13.463 38.4709 12.7223 38.4709 11.3889V6.05559L38.7312 5.79633L39.4192 5.70374V5.07411H36.5185V5.6667H36.5371ZM22.4245 2.55559C22.2757 2.51855 22.1456 2.61114 22.1456 2.77781C22.1456 2.94448 22.2757 3.11114 22.4245 3.14818C22.5732 3.18522 22.7034 3.07411 22.7034 2.92596C22.722 2.7593 22.5918 2.59263 22.4245 2.55559ZM59.0913 26.0371C58.7752 24.5371 58.3476 24.0371 57.0832 23.6852C58.7753 23.2593 59.519 22.5 59.519 21.1297C59.519 19.3889 58.3104 18.5186 55.8932 18.5186H52.0629V19.1297L52.9182 19.2037L53.1785 19.4074V27.6482L52.9182 27.8519L52.0629 27.926V28.5371H55.6329V27.926L54.7776 27.8519L54.5173 27.6482V24.0926C55.0193 24.0556 55.1123 24.0556 55.3168 24.0556C56.1721 24.0556 56.6928 24.2223 57.0832 24.6297C57.3993 24.9815 57.5667 25.3334 57.8456 26.4074C58.3104 28.1852 58.8125 28.6667 60.2256 28.6667C60.5975 28.6667 60.8206 28.6297 61.4156 28.5371V27.963C59.8165 27.9815 59.4446 27.6852 59.0913 26.0371ZM55.4098 23.3889C55.2239 23.3889 55.0379 23.3889 54.5173 23.3519V19.1852H55.2424C57.1762 19.1852 58.0129 19.8148 58.0129 21.2778C58.0129 22.7408 57.1948 23.3889 55.4098 23.3889ZM45.2576 18.3889H44.2721L40.7579 27.7593L39.884 27.9445V28.5556H42.8218V27.9445L41.8364 27.8704L41.6876 27.6667L42.7475 24.8149H46.2989L47.3773 27.6667L47.2657 27.8704L46.336 27.9445V28.5556H49.7387V27.9445L48.8462 27.7593L45.2576 18.3889ZM43.0078 24.0926L44.4953 19.9445L46.0385 24.0926H43.0078ZM16.5489 27.2037V29.926C16.8464 29.8334 17.1438 29.7408 17.4413 29.6482V27.1482C17.4599 27 17.5529 26.9445 17.6645 26.926H21.1043V26.0371H17.6645C17.5715 26.0186 17.4786 25.9445 17.46 25.8148V23.2037H16.586V25.7593C16.586 25.926 16.5303 26.0371 16.3443 26.0371H12.9417V26.9074H16.3629C16.4559 26.926 16.5489 27.0186 16.5489 27.2037ZM35.1054 23.2223C36.6673 22.7408 37.2809 22.0926 37.2809 20.8704C37.2809 19.2963 36.1281 18.5 33.841 18.5H30.0107V19.1111L30.866 19.1852L31.1264 19.3889V27.6297L30.866 27.8334L30.0107 27.9074V28.5186H33.9712C36.4813 28.5186 37.9131 27.463 37.9131 25.6482C37.9131 24.1112 36.9834 23.2963 35.1054 23.2223ZM32.4651 19.2037C33.1531 19.1667 33.3018 19.1667 33.4878 19.1667C34.9753 19.1667 35.7934 19.8334 35.7934 21.0186C35.7934 22.4074 34.9009 23.0741 33.0415 23.0741C32.9113 23.0741 32.8556 23.0741 32.4651 23.0556V19.2037V19.2037ZM33.5435 27.8334C33.3204 27.8334 33.2646 27.8334 32.4837 27.7963V23.7963C33.1159 23.7408 33.5621 23.7037 33.9898 23.7037C35.626 23.7037 36.4442 24.3704 36.4442 25.7037C36.4256 27.1852 35.5145 27.8334 33.5435 27.8334ZM18.5198 14.6297H17.6459V20.8148H18.5198V14.6297ZM20.6767 14.6297H19.8028V20.8148H20.6767V14.6297ZM21.941 4.48152C18.1293 3.27781 14.6523 2.6667 11.6215 2.6667C8.34901 2.6667 4.90918 3.27781 1.37636 4.463C1.06027 4.59263 0.837126 4.77781 0.799939 5.27781V28C0.799939 28.2778 0.799939 28.7408 1.26478 29.0741C2.78947 30.1852 7.43792 32.2593 11.7145 32.2593C15.991 32.2593 20.6395 30.1852 22.1642 29.0741C22.629 28.7408 22.629 28.2963 22.629 27.8704V5.40744C22.5918 4.81485 22.3129 4.62966 21.941 4.48152ZM11.3798 31.6111C7.34494 31.5185 3.06838 29.5926 1.61807 28.5556C1.45072 28.426 1.43213 28.2778 1.43213 28V22.3334H11.3798V31.6111ZM11.3798 21.6852H1.43213V13.7593H11.3798V21.6852ZM1.43213 13.1111V5.48152C1.45072 5.24077 1.5251 5.12966 1.69245 5.03707C5.1137 3.88892 8.44199 3.31485 11.6029 3.31485C14.5407 3.31485 17.9248 3.90744 21.6436 5.07411C21.8667 5.1667 21.941 5.29633 21.941 5.61115V13.0926H11.6773L1.43213 13.1111ZM21.9782 27.8704C21.9782 28.2778 21.9782 28.4074 21.7737 28.5556C20.342 29.5926 16.0654 31.5 12.0306 31.6111V22.3334H21.9782V27.8704ZM21.9782 21.6852H12.0306V13.7593H21.9782V21.6852ZM16.3629 14.6297H15.489V20.8148H16.3629V14.6297ZM14.1874 14.6297H13.3135V20.8148H14.1874V14.6297ZM54.5917 12.963L53.8293 12.9074L53.6992 12.7963V7.40744L53.8293 7.29633L54.5917 7.24077V6.74077H51.6725V7.24077L52.4162 7.29633L52.5464 7.40744V12.7963L52.4162 12.9074L51.6725 12.963V13.463H54.5917V12.963ZM99.7745 18.2593C96.8553 18.2593 94.8471 20.4074 94.8471 23.5186C94.8471 26.5926 96.8552 28.7778 99.7187 28.7778C102.545 28.7778 104.553 26.5926 104.553 23.5186C104.534 20.5 102.508 18.2593 99.7745 18.2593ZM99.7001 28C97.7106 28 96.409 26.2408 96.409 23.5186C96.409 20.8334 97.692 19.0741 99.6629 19.0741C101.708 19.0741 102.973 20.7963 102.973 23.5556C102.973 26.2408 101.671 28 99.7001 28ZM63.8142 6.75929H61.6201V7.25929L62.3267 7.31485L62.401 7.42596L60.4487 12.2408L58.422 7.42596L58.4964 7.31485L59.1657 7.25929V6.75929H56.4139V7.25929L57.1204 7.37041L59.6678 13.5186H60.5975L63.089 7.37041L63.7956 7.25929V6.75929H63.8142ZM128.465 27.7593L124.857 18.3889H123.872L120.358 27.7593L119.484 27.9445V28.5556H122.422V27.9445L121.455 27.8704L121.306 27.6667L122.366 24.8149H125.917L126.996 27.6667L126.884 27.8704L125.954 27.9445V28.5556H129.357V27.9445L128.465 27.7593ZM122.626 24.0926L124.114 19.9445L125.657 24.0926H122.626ZM114.11 19.1111L115.003 19.2408L115.282 19.5186V26.5556L110.15 18.8889V18.5186H107.324V19.1297L108.29 19.2037L108.551 19.4074V27.5186L108.29 27.7963L107.379 27.9074V28.5186H110.54V27.9074L109.648 27.7963L109.387 27.5186V20.0371L115.114 28.5371H116.1V19.5L116.379 19.2223L117.271 19.0926V18.4815H114.11V19.1111V19.1111ZM90.9982 7.25929L91.742 7.31485L91.8721 7.42596V12.8149L91.742 12.926L90.9982 12.9815V13.4815H93.9174V12.9815L93.1551 12.926L93.0249 12.8149V7.42596L93.1551 7.31485L93.9174 7.25929V6.75929H90.9982V7.25929ZM104.999 12.8149L105.762 10.9445H108.309L109.09 12.8149L109.034 12.926L108.346 12.9815V13.4815H111.024V12.9815L110.373 12.8704L107.77 6.68522H106.859L104.311 12.8704L103.661 12.9815V13.4815H105.817V12.9815L105.074 12.926L104.999 12.8149ZM107.026 7.88892L108.067 10.3704H106.003L107.026 7.88892ZM91.742 27.6111L91.5374 27.8519H88.1534V19.4074L88.3951 19.2037L89.2504 19.1297V18.5186H85.5874V19.1297L86.5543 19.2037L86.8146 19.4074V27.6482L86.5543 27.8519L85.5874 27.926V28.5371H92.7832V25.8148H92.0023L91.742 27.6111ZM76.8856 12.963L76.2162 12.9074L76.086 12.7963V10.5186C76.272 10.5 76.3464 10.5 76.5323 10.5C77.5549 10.5 77.8339 10.7408 78.2057 11.8889C78.6148 13.2037 78.9867 13.5371 80.0279 13.5371C80.3254 13.5371 80.6229 13.5 81.0506 13.426V12.9815H80.8274C79.9349 12.9815 79.6746 12.7963 79.4329 11.963C79.0982 10.7408 78.8751 10.463 78.0012 10.2223C79.1354 9.963 79.6932 9.40744 79.6932 8.53707C79.6932 7.35189 78.7635 6.75929 76.96 6.75929H74.0965V7.25929L74.7659 7.31485L74.896 7.42596V12.8149L74.7659 12.926L74.0965 12.9815V13.4815H76.8856V12.963V12.963ZM76.0674 7.29633H76.4765C77.8152 7.29633 78.3545 7.68522 78.3545 8.62966C78.3545 9.55559 77.8153 9.963 76.5323 9.963C76.3464 9.963 76.2348 9.963 76.0489 9.94448V7.29633H76.0674ZM63.3307 23.463C63.3307 24.9074 63.8142 26.2037 64.7067 27.1667C65.6921 28.2223 66.9193 28.7223 68.4998 28.7223C69.5039 28.7223 70.3778 28.5741 71.512 28.2037V25.8334H70.6938L70.3406 27.5L70.0989 27.7408C69.5968 27.8889 69.2621 27.926 68.7973 27.926C66.3615 27.926 64.874 26.2408 64.874 23.463C64.874 20.7778 66.2685 19.1111 68.5556 19.1111C69.1506 19.1111 69.5596 19.2037 70.2476 19.5L70.4521 19.7778L70.6753 21.1297H71.512V18.8334C70.1918 18.4445 69.4481 18.3334 68.537 18.3334C65.4504 18.3334 63.3307 20.4074 63.3307 23.463ZM81.4596 27.6111L81.2551 27.8519H77.2202V23.6667H79.6932L79.8978 23.8889L80.0465 24.963H80.7531V21.6667H80.0465L79.8978 22.7593L79.6932 22.963H77.2202V19.1852H80.6973L80.9018 19.4074L81.1063 20.6852H81.9431V18.5H74.7659V19.1111L75.6212 19.1852L75.8815 19.3889V27.6297L75.6212 27.8334L74.7659 27.9074V28.5186H82.5009V26.0741H81.7199L81.4596 27.6111ZM88.172 11.5371C88.172 11.0926 87.986 10.6667 87.6699 10.3889C87.3353 10.0926 87.1121 9.98152 86.2196 9.6667C84.8623 9.1667 84.5276 8.90744 84.5276 8.35189C84.5276 7.68522 85.0668 7.27781 85.9221 7.27781C86.2382 7.27781 86.4799 7.31485 86.8332 7.42596L86.9634 7.57411L87.1493 8.62966H87.8745V6.963C87.1121 6.72226 86.5729 6.64818 85.9221 6.64818C84.3231 6.64818 83.3004 7.40744 83.3004 8.62966C83.3004 9.463 83.7281 9.88893 85.104 10.426C86.1267 10.8334 86.201 10.8704 86.387 10.9815C86.7774 11.2037 86.9448 11.463 86.9448 11.8334C86.9448 12.5371 86.3684 12.9445 85.3829 12.9445C84.9924 12.9445 84.7321 12.9074 84.2115 12.7593L84.0999 12.6111L83.9512 11.3704H83.1702V13.2408C83.8768 13.4815 84.3974 13.5741 85.197 13.5741C87.0006 13.5741 88.172 12.7593 88.172 11.5371ZM9.44603 6.6667C9.52041 6.55559 9.46463 6.44448 9.35306 6.35189C8.77666 5.87041 7.14043 4.57411 7.14043 4.57411C7.04746 4.59263 6.86151 4.61115 6.61979 4.6667C6.39667 4.70374 6.09916 4.75929 6.09916 4.75929C6.09916 4.75929 8.47917 6.29633 9.11136 6.68522C9.22292 6.75929 9.35306 6.77781 9.44603 6.6667ZM11.6959 5.51855C11.8446 5.51855 11.9004 5.40744 11.9004 5.25929C11.919 5.00003 11.9376 4.72226 11.9562 4.18522C11.7517 4.18522 11.5843 4.18522 11.417 4.18522C11.4542 4.72226 11.4542 5.01855 11.4728 5.25929C11.5099 5.40744 11.5657 5.51855 11.6959 5.51855ZM12.5698 5.6667C12.6999 5.70374 12.7929 5.61115 12.8487 5.48152C12.9603 5.20374 13.109 4.81485 13.3321 4.24077C13.1648 4.22225 12.9789 4.22226 12.7557 4.20374C12.607 4.75929 12.514 5.09262 12.4396 5.35188C12.4211 5.48151 12.4396 5.61115 12.5698 5.6667ZM10.8406 5.6667C10.9707 5.62966 10.9893 5.50003 10.9521 5.35188C10.8778 5.09262 10.7848 4.75929 10.636 4.20374C10.4315 4.20374 10.227 4.22225 10.0596 4.24077C10.2828 4.83337 10.4315 5.22226 10.5431 5.48152C10.6174 5.61115 10.7104 5.70374 10.8406 5.6667ZM10.0596 6.05559C10.1712 5.98152 10.1526 5.85188 10.0782 5.72225C9.89229 5.42596 9.5576 4.92596 9.14854 4.29633C8.88822 4.31485 8.62793 4.35189 8.44199 4.3704C8.98121 5.01855 9.48324 5.64818 9.74355 5.963C9.83652 6.07411 9.94807 6.14818 10.0596 6.05559ZM11.7145 6.3704C11.4356 6.3704 11.1753 6.42596 10.9335 6.53707C10.227 6.83337 9.72494 7.51855 9.72494 8.33337C9.72494 9.40744 10.5988 10.2778 11.6773 10.2778C11.9562 10.2778 12.2165 10.2223 12.4582 10.1111C13.1648 9.81485 13.6482 9.12966 13.6482 8.31485C13.6668 7.24077 12.7929 6.3704 11.7145 6.3704ZM12.2537 9.55559C12.0864 9.62966 11.919 9.6667 11.7145 9.6667C10.9521 9.6667 10.3385 9.05559 10.3385 8.31485C10.3385 7.75929 10.6732 7.27781 11.1567 7.07411C11.324 7.00004 11.4913 6.963 11.6773 6.963C12.4396 6.963 13.0532 7.57411 13.0532 8.31485C13.0718 8.8704 12.7371 9.35189 12.2537 9.55559ZM14.3548 7.44448C14.392 7.57411 14.5221 7.59263 14.6709 7.55559C15.3961 7.37041 21.0857 5.79633 21.0857 5.79633C21.0857 5.79633 21.0857 5.79633 21.0857 5.75929C20.4721 5.55559 19.4867 5.27781 19.4867 5.27781C19.4867 5.27781 15.2473 6.88892 14.5407 7.1667C14.4106 7.22226 14.3176 7.31485 14.3548 7.44448ZM5.96901 18.4074C5.96901 18.426 5.96901 18.4445 5.96901 18.4445V20.8148H6.84291V18.3519C6.8615 18.2037 6.95449 18.1297 7.04746 18.1111H10.4873V17.2408H7.04746C6.93589 17.2223 6.8615 17.1482 6.84291 17V14.6297H5.96901V16.926C5.96901 16.926 5.96901 16.9445 5.96901 16.963C5.96901 17.1297 5.87605 17.2223 5.76448 17.2408H2.32464V18.1111H5.76448C5.85745 18.1297 5.96901 18.2223 5.96901 18.4074ZM3.60761 28.6667V23.2223H2.73369V28.2037C2.97541 28.3519 3.25433 28.5 3.60761 28.6667C3.60761 28.6667 3.58902 28.6667 3.60761 28.6667ZM14.5035 8.29633C14.5035 8.44448 14.6151 8.50003 14.7639 8.50003C15.5076 8.53707 21.1043 8.85189 21.1043 8.85189V7.74078C21.1043 7.74078 15.5262 8.03707 14.7639 8.07411C14.6151 8.09263 14.5035 8.14818 14.5035 8.29633ZM13.9643 6.6667C14.0387 6.77781 14.1689 6.75929 14.299 6.68522C14.9312 6.27781 17.3112 4.75929 17.3112 4.75929C17.3112 4.75929 17.0137 4.70374 16.7906 4.6667C16.5674 4.62966 16.3629 4.59263 16.27 4.57411C16.27 4.57411 14.6337 5.88893 14.0573 6.35189C13.9457 6.44448 13.8899 6.55559 13.9643 6.6667ZM14.3548 9.1667C14.3176 9.29633 14.4106 9.38892 14.5407 9.44448C15.2473 9.72226 21.0857 11.963 21.0857 11.963V10.8148C21.0857 10.8148 15.3961 9.24077 14.6709 9.05559C14.5407 9.01855 14.4106 9.03707 14.3548 9.1667ZM13.3507 6.05559C13.4623 6.12966 13.5739 6.07411 13.6668 5.963C13.9271 5.64818 14.4292 5.01855 14.9684 4.3704C14.7825 4.35189 14.5035 4.31485 14.2618 4.29633C13.8528 4.92596 13.5181 5.42596 13.3321 5.72225C13.2578 5.85188 13.2392 5.98152 13.3507 6.05559ZM12.5698 10.9445C12.4396 10.9815 12.421 11.1111 12.4582 11.2593C12.514 11.5 12.7186 12.2408 12.7186 12.2408H13.2764C13.2764 12.2408 12.9417 11.3889 12.8487 11.1297C12.7929 11 12.6999 10.9074 12.5698 10.9445ZM11.6959 11.0926C11.5471 11.0926 11.4913 11.2037 11.4913 11.3519C11.4728 11.5741 11.4356 12.2408 11.4356 12.2408H11.9562C11.9562 12.2408 11.919 11.5741 11.9004 11.3519C11.9004 11.2037 11.8446 11.0926 11.6959 11.0926ZM10.8406 10.9445C10.7104 10.9074 10.6174 11 10.5617 11.1297C10.4687 11.3704 10.134 12.2408 10.134 12.2408H10.6918C10.6918 12.2408 10.8964 11.5 10.9521 11.2593C10.9893 11.1111 10.9707 11 10.8406 10.9445ZM13.9643 9.94448C13.8899 10.0556 13.9457 10.1667 14.0573 10.2593C14.6337 10.7408 16.5117 12.2408 16.5117 12.2408H17.9062C17.9062 12.2408 14.9312 10.3334 14.299 9.92596C14.1875 9.85189 14.0573 9.81485 13.9643 9.94448ZM13.3507 10.5556C13.2392 10.6297 13.2578 10.7593 13.3321 10.8889C13.5181 11.1667 14.2061 12.2408 14.2061 12.2408H14.9684C14.9684 12.2408 13.9271 10.963 13.6668 10.6482C13.5739 10.5371 13.4623 10.463 13.3507 10.5556ZM10.0596 10.5556C9.94807 10.4815 9.83652 10.5371 9.74355 10.6482C9.48324 10.963 8.44199 12.2408 8.44199 12.2408H9.20433C9.20433 12.2408 9.91088 11.1667 10.0782 10.8889C10.1526 10.7593 10.1712 10.6297 10.0596 10.5556ZM9.03698 9.1667C8.99979 9.03707 8.86964 9.01855 8.72089 9.05559C7.99574 9.24077 2.30605 10.8148 2.30605 10.8148V11.963C2.30605 11.963 8.16307 9.72226 8.85104 9.44448C8.99979 9.38892 9.09276 9.29633 9.03698 9.1667ZM8.90683 8.29633C8.90683 8.14818 8.79526 8.09263 8.64651 8.09263C7.90276 8.05559 2.30605 7.75929 2.30605 7.75929V8.8704C2.30605 8.8704 7.88417 8.57411 8.64651 8.51855C8.79526 8.50003 8.90683 8.44448 8.90683 8.29633ZM9.44603 9.94448C9.37166 9.83337 9.24151 9.85189 9.11136 9.92596C8.47917 10.3334 5.50417 12.2408 5.50417 12.2408H6.8987C6.8987 12.2408 8.77666 10.7408 9.35306 10.2593C9.46463 10.1667 9.52041 10.0556 9.44603 9.94448ZM9.03698 7.44448C9.07417 7.31485 8.9812 7.22226 8.85104 7.1667C8.14448 6.88892 3.90511 5.27781 3.90511 5.27781C3.90511 5.27781 2.91964 5.53707 2.30605 5.75929C2.30605 5.79633 2.30605 5.79633 2.30605 5.79633C2.30605 5.79633 7.99574 7.37041 8.72089 7.55559C8.86964 7.59263 8.99979 7.57411 9.03698 7.44448Z" fill="#365072"></path>
</svg>
